/* XPM */
static char *a4861c502b524875befe7bdd21c34b28z7e1Nh3Op7Y060xv[] = {
/* columns rows colors chars-per-pixel */
"32 32 156 2 ",
"   c None",
".  c #000003",
"X  c #00010A",
"o  c #010413",
"O  c #040A14",
"+  c #090A11",
"@  c #01061B",
"#  c #030B1B",
"$  c #0A0D1B",
"%  c #05121D",
"&  c #0C131E",
"*  c #040D22",
"=  c #0B0E23",
"-  c #051423",
";  c #0C1423",
":  c #041927",
">  c #0C1329",
",  c #041A2C",
"<  c #0C1B2C",
"1  c #121B25",
"2  c #111728",
"3  c #131C2D",
"4  c #0E1F30",
"5  c #091F3A",
"6  c #121E31",
"7  c #0F222F",
"8  c #14212D",
"9  c #1A232E",
"0  c #0C2230",
"q  c #122133",
"w  c #1B2333",
"e  c #162836",
"r  c #1B2A34",
"t  c #132639",
"y  c #1A273F",
"u  c #132A3A",
"i  c #1C2E3D",
"p  c #1D323F",
"a  c #232B35",
"s  c #292F3E",
"d  c #22303C",
"f  c #1E2E46",
"g  c #1D3343",
"h  c #243447",
"j  c #2D3444",
"k  c #243947",
"l  c #2C3947",
"z  c #22324C",
"x  c #253A4A",
"c  c #2B3B4B",
"v  c #343D4F",
"b  c #263B52",
"n  c #2A3856",
"m  c #273C58",
"M  c #27404D",
"N  c #2D414F",
"B  c #3C434F",
"V  c #2D4452",
"C  c #324452",
"Z  c #3A4252",
"A  c #324956",
"S  c #32405A",
"D  c #324959",
"F  c #394D5A",
"G  c #3D515C",
"H  c #354D65",
"J  c #374D68",
"K  c #3E5463",
"L  c #35526B",
"P  c #3B5475",
"I  c #3F5B79",
"U  c #49555F",
"Y  c #425662",
"T  c #495160",
"R  c #455865",
"E  c #4D5B65",
"W  c #465C6B",
"Q  c #495E6B",
"!  c #525F65",
"~  c #4B606D",
"^  c #50646A",
"/  c #4E6373",
"(  c #4B647A",
")  c #516572",
"_  c #536977",
"`  c #5A6870",
"'  c #536778",
"]  c #5B6D7A",
"[  c #5E737B",
"{  c #637177",
"}  c #62757D",
"|  c #66797E",
" . c #6F7C7C",
".. c #486081",
"X. c #4E6882",
"o. c #546C85",
"O. c #5C7384",
"+. c #5B728A",
"@. c #637484",
"#. c #657986",
"$. c #6F8489",
"%. c #728183",
"&. c #72868C",
"*. c #76888F",
"=. c #698195",
"-. c #6A8299",
";. c #778B91",
":. c #7B8C92",
">. c #798B98",
",. c #7E929E",
"<. c #708AA3",
"1. c #7A93A7",
"2. c #859797",
"3. c #86979C",
"4. c #879899",
"5. c #8C9B9B",
"6. c #8999A7",
"7. c #849CAF",
"8. c #8A9DA9",
"9. c #8FA0A3",
"0. c #92A1A1",
"q. c #9AA5A6",
"w. c #9CACAC",
"e. c #8FA4B5",
"r. c #95ADBC",
"t. c #9DB0B1",
"y. c #A2AEAE",
"u. c #AEB5AE",
"i. c #A5B5B4",
"p. c #AEBAB5",
"a. c #ADBDBD",
"s. c #B1BFB6",
"d. c #B3BFB9",
"f. c #B5C1BB",
"g. c #C3CABE",
"h. c #ADBEC1",
"j. c #B4C4C4",
"k. c #BDC8C1",
"l. c #BCCDC9",
"z. c #C7D1C4",
"x. c #C3D2CD",
"c. c #CEDACE",
"v. c #C3D2D1",
"b. c #CEDBD6",
"n. c #DAE4D6",
"m. c #D5E3D9",
"M. c #DFE9DD",
"N. c #E1EBDB",
"B. c #EFF7E4",
"V. c #ECF4E2",
"C. c #F3F8E5",
"Z. c #F2F9E6",
"A. c #F4FAE5",
"S. c #FBFFE9",
"D. c #FAFFEA",
"F. c #FCFFEC",
/* pixels */
"                                                                ",
"                          X X X X X X                           ",
"                  . . . . . . . . . . X X #                     ",
"              . . . . . . . X 1 a 9 O . . X o #                 ",
"            . . X X . . X # k @.6.>.C ; X . . . o               ",
"          . o 3 k u $ . o g w.M.Z.V.x.Y # . . . . o             ",
"        . 8 %.g.z.s.Y % X 6 i.V.D.Z.b.o.< . . . . . o           ",
"      . +  .c.F.D.V.,.h X $ @.j.m.v.e.S # . X % o . X @         ",
"    . . & u.B.A.V.n.e.J # o z =.r.7.I > o 8 T | E w . o         ",
"  . . . > q.n.N.c.a.1.L : X # m ..P 5 @ < ( j.N.x.] @ X #       ",
"  . . . , #.t.i.8.-.o.b # . X o # * @ o n <.h.n.N.2.7 X X       ",
". . . . @ u D / +.( f # . . . . . . . X y X.7.j.l.;.e X . @     ",
". . . . . X $ 3 y 6 @ o o X . . . X X . @ z +.1.7.O.i X . X     ",
". . . X X . . . X o s U E B & O 3 v Z a $ * m X.o.H < X . X     ",
". . o > t 3 $ . X 3 %.p.d.5.i , G 3.9.} d o * b b q @ . . X     ",
". . ; V _ ) x % + C 0.k.f.5.i 0 ^ y.y.:.C # X # @ o X . . X     ",
". . 9 Q &.4.[ d o p %.w.0.| 3 @ C ;.$.A ; X . X o @ @ X . X     ",
". X w Q #.*.[ l o * G } } R ; X < M g & X . . o j Y c o . . o   ",
". . 9 Y ] O._ c o X 3 C K g O . X # o . . . X - { 5.` # . . X   ",
". . 1 D / ' W h @ . X 2 i - X . . . X O ; ; @ ; { 4.! O . .     ",
". . % g W / D q X . . X X . . . . @ > i V x * o l F r X . .     ",
". . X 6 K K i @ . X X o X . . . O t F Q Q V - X - , @ . . .     ",
"  . . o > > # X X < c c 8 X . . ; N W ~ R x @ . @ @ X . . X     ",
"  . . . X X . X - V W W V - X . O w A K V 0 X . X X . . .       ",
"    . . . . . $ g W ) ) Y g # . . @ 8 i q O . . . . . .         ",
"      . . . . & c K Q ~ Q F q O . . X o X . . . . . . .         ",
"        . . . . O 0 V Y R Y N 6 @ . . . . . . . . . .           ",
"          . . . . X + $ = = = @ X . . . . . . . . .             ",
"            . . . . . . . . . . . . . . . . . . X               ",
"                . . . . . . . . . . . . . . .                   ",
"                      . . . . . . . . . .                       ",
"                                                                "
};
