/* XPM */
static char *_a89bde5127d489b93aa1714e131761aUvoLzrDSwtgIvn2I[] = {
/* columns rows colors chars-per-pixel */
"32 32 114 2 ",
"   c None",
".  c #010101",
"X  c #05060A",
"o  c #07080D",
"O  c #09090D",
"+  c #070710",
"@  c #0A0C13",
"#  c #0F1017",
"$  c #0E101A",
"%  c #12151D",
"&  c #37231C",
"*  c #0F1522",
"=  c #131722",
"-  c #151924",
";  c #1A1C26",
":  c #171C29",
">  c #1A1E2A",
",  c #1D212C",
"<  c #1D2332",
"1  c #20232E",
"2  c #222632",
"3  c #252834",
"4  c #2A2B35",
"5  c #202738",
"6  c #232A3B",
"7  c #2B2E3B",
"8  c #2D313E",
"9  c #33333B",
"0  c #4C2A1B",
"q  c #56301E",
"w  c #563427",
"e  c #603420",
"r  c #613A2A",
"t  c #794228",
"y  c #252E41",
"u  c #273043",
"i  c #2B3243",
"p  c #2B3449",
"a  c #2E384D",
"s  c #323644",
"d  c #353847",
"f  c #3B3C46",
"g  c #363A49",
"h  c #3B3E4D",
"j  c #313B51",
"k  c #3E4151",
"l  c #43414A",
"z  c #48464C",
"x  c #414555",
"c  c #4D4A52",
"v  c #434758",
"b  c #45495B",
"n  c #494D5E",
"m  c #55525B",
"M  c #5A575F",
"N  c #4B4F60",
"B  c #4D5263",
"V  c #505466",
"C  c #5D5A62",
"Z  c #525669",
"A  c #565A6D",
"S  c #585C6F",
"D  c #5A5E72",
"F  c #685F65",
"G  c #5E6275",
"H  c #666169",
"J  c #69646D",
"K  c #606477",
"L  c #6B6771",
"P  c #606478",
"I  c #716C74",
"U  c #7A747D",
"Y  c #80777F",
"T  c #7C7780",
"R  c #7F7982",
"E  c #817B84",
"W  c #868088",
"Q  c #8C858E",
"!  c #948C96",
"~  c #9B939C",
"^  c #A99FA7",
"/  c #ABA1AA",
"(  c #B2A7B0",
")  c #B4AAB2",
"_  c #B5ABB3",
"`  c #B6ACB4",
"'  c #B6ACB5",
"]  c #B8ADB5",
"[  c #BCB1B9",
"{  c #C2B6BD",
"}  c #C1B5BE",
"|  c #C2B7BE",
" . c #C3B7BE",
".. c #C4B8C0",
"X. c #C7BBC2",
"o. c #C7BBC3",
"O. c #C8BCC3",
"+. c #C8BCC4",
"@. c #CABDC5",
"#. c #CBBEC6",
"$. c #CBBFC6",
"%. c #CBBFC7",
"&. c #CCBFC6",
"*. c #CDBFC6",
"=. c #CCBFC7",
"-. c #CDC0C7",
";. c #CEC0C7",
":. c #CDC0C8",
">. c #CEC1C8",
",. c #CFC1C9",
"<. c #CFC2C9",
"1. c #D0C2C9",
"2. c #D0C3CA",
"3. c #D2C5CC",
/* pixels */
"                              .                                 ",
"                      @ - , < 5 < - % o                         ",
"                o - 6 p u 6 6 5 6 6 y y < $                     ",
"            . - u u > 1 f M I R E U m 8 6 p 6 @                 ",
"          X < j , 4 I / ..:.:.1.1.:.+._ U s 6 p =               ",
"        X 6 p ; C ` :.:.&.&.&.&.&.&.&.:.:._ c < j -             ",
"      X 5 u @ C +.1.&.:.&.&.&.&.&.-.+. .+.:.] 9 6 j %           ",
"      : p % > / :.! c E ..&.&.&.-.^ z 4 H  .1.T @ u a $         ",
"    @ p - 8 7 ` ( ; . O Q :.&.&.+.c . . X E 3.! % : p u o       ",
"    > 6 , A , W ~ X 0 t F :.&.&...9 . q e M +.M 2 b - j :       ",
"  X 6 % x P k 4 Q l & w Y :.&.&.&.I O 0 r U R > B G s , p @     ",
"  $ < > D G G g 3 L E ! ..:.-.&.-.O.Q m L C , b G G A : u :     ",
"  = = g K G G G n 3 9 J ! / [  . .] ~ J 9 4 B G G G K g - 6 X   ",
". - % B G G G G G D n d 7 9 f l f 9 3 s B G G G G G G s @ 6 @   ",
". * - D G G G G G G G G G D A Z Z A D G G G G G G G n 2 4 < =   ",
". $ @ k G G G G G G G G G G G G G G G G K G G G G B ; k v - :   ",
". @ : 5 s A G G G G S D G G G G G G G N x S K D k ; h G B - :   ",
". + 4 A s 2 g B D v % , Z K G G G K Z # . 2 x 2 1 n G G A ; =   ",
"  o 2 G G B d 2 3 $ . . s n N N n b d X . O 3 x D G G G A = $ . ",
"  X ; D G G G D B % . @ 3 4 7 7 i s s O . 7 G G G G G G h @ $   ",
"  . @ v G G G G G 4 . k G G G G G P n @ 4 S G G G G G k , $ @   ",
"  . . % h D G G G V g D G G G G G G A B G G G G G V 7 6 b $ X   ",
"    . - 7 3 x D K K G G G G G G G G G K G K D n 8 , h D v X .   ",
"    . o b b 3 2 g N A G G G G G G G D A n h 3 , d Z K G 2 .     ",
"      . - B G n i , , 2 4 7 8 i i 4 2 > 2 s b D K K A 4 X       ",
"        . @ 4 N D D Z B n x k k v b N Z D P P K A h % .         ",
"            . O - 8 x B S G G K K G G D A B b s % . .           ",
"              . . . - 2 5 4 7 7 7 4 4 3 1 - @ . .               ",
"                . . X % ; : , , , 1 1 < ; @ . .                 ",
"                . . .                   . . .                   ",
"                  . .                   . .                     ",
"                                                                "
};
