/* XPM */
static char *result[] = {
/* columns rows colors chars-per-pixel */
"32 32 86 1 ",
"  c #020204",
". c #06060B",
"X c #08070E",
"o c #08080F",
"O c #0B0B14",
"+ c #0E0E1A",
"@ c #100F1E",
"# c #0F101D",
"$ c #11111E",
"% c #131323",
"& c #181526",
"* c #151827",
"= c #1A1A26",
"- c #16162A",
"; c #161A2C",
": c #191A2E",
"> c #171D30",
", c #1A1D33",
"< c #1C1F38",
"1 c #221C2F",
"2 c #301E27",
"3 c #201D33",
"4 c #1C2235",
"5 c #1D233B",
"6 c #21222B",
"7 c #34222B",
"8 c #222437",
"9 c #2C2432",
"0 c #23243B",
"q c #2C253A",
"w c #21293E",
"e c #2B293D",
"r c #3D2936",
"t c #362B3C",
"y c #3B2E3C",
"u c #402930",
"i c #1F2741",
"p c #1F2941",
"a c #212B44",
"s c #2C2C42",
"d c #222D49",
"f c #253147",
"g c #2B3246",
"h c #24334C",
"j c #2A364D",
"k c #2C394F",
"l c #353045",
"z c #33344A",
"x c #393448",
"c c #303A4D",
"v c #3C394A",
"b c #253651",
"n c #283651",
"m c #2C3A52",
"M c #333E53",
"N c #313E58",
"B c #403747",
"V c #443B4B",
"C c #4F3A48",
"Z c #533F4A",
"A c #364156",
"S c #3B4154",
"D c #364259",
"F c #3B455B",
"G c #3E495F",
"H c #3E4A61",
"J c #57414D",
"K c #5B434D",
"L c #4B4252",
"P c #464759",
"I c #434A5D",
"U c #4E4C5D",
"Y c #534352",
"T c #554C5C",
"R c #5B4A58",
"E c #644B54",
"W c #6D4B52",
"Q c #65515C",
"! c #73555C",
"~ c #444E64",
"^ c #4F5365",
"/ c #555567",
"( c #595768",
") c #5C5969",
"_ c #655965",
"` c #7D5B60",
/* pixels */
"         .O..XOOO+@+@@++XX+.  X+",
"        .OO  O%-:::--@+++X+X..o@",
"     X  .O+ O;<5i<5<,-O+@OOX..O%",
"    OO  O$O.%5aiiddd5,@O+o+O..+%",
"   X%@ .O#O+5hnbbnbdi5-@OOoO..o%",
"   +,+ X++X*hDDNnmbii5-@%%o+o..O",
". .-,O XOOX>fa>%%@@@%@@+ac-OX..o",
"X O,,O OOOX++O++++@@@@++4Fm@. .X",
"X %4;X ooooO%;>,,,-:::-%%aM:.. .",
"XX-,%. Xo+-5iiiiid<<,<<>-;54O...",
"XX--#  o%ippppahdbbi<<55:-%-#X. ",
".O-+o o;ippppadbdbbbii555,%O##X.",
".O#X.+,pppp54445ddbbhhpp55,$O#+X",
" OXX+4pfp5;;5w4*%<bbAAhp5<<-+O#O",
" X.O<hja4;pf56>;>%-dbnhhp5<:%O*+",
"..O,aAh;;p45kj4*@-%;hhhhaa<<%O##",
"..*whn4#<,m~~~Hji-<-4kDmfp45>%O+",
".O4hhp#4<kDSNMFDbb5i;hDDnh55:-%+",
".#4fj>44:6=$@@@&:4ihwaDGmh55<%@@",
".#;Ak*=OXXXXOOO+OO+-5aGHmhp5<-@+",
"O6fDc+...O++%---%$+X@wHGmdi5<:-+",
"#*wASo.o+#&,<303<:&O@kFAhp5w<<--",
"*#aAI$X@&30szzczsq,%;AFmha55<:8I",
"#+5AP1O&3slxvVLLBls3e~Aka555<8M8",
"#O5fDSO6ttvRYYCLVVxeFFAfp55<-g84",
"OO4pA~99r2rKJ`!ZZKvUIAka55<:4g*w",
".O>5f^)y7uu!WWWrKE_)Fka5<,:;g4%:",
".O;45kP9=JEKJYQLT_(Fka5,:-@4g%$,",
" O$;4;+%lSSPU)(/UIAja5,;*$+4w##$",
"..O#OXO4aajSFFFSAjf54;%#OOo%;O#X",
"    .X#%:,<0wawa544*$OXX..X#$OOX",
".     .OOO#%-=--%$OX..    O%OOOO"
};
