/* XPM */
static char *result[] = {
/* columns rows colors chars-per-pixel */
"32 32 147 2 ",
"   c #07060C",
".  c #09070E",
"X  c #09080F",
"o  c #0D0B15",
"O  c #0F0D19",
"+  c #110E1C",
"@  c #12111F",
"#  c #151424",
"$  c #181427",
"%  c #161628",
"&  c #1A162B",
"*  c #17192A",
"=  c #1B1B2D",
"-  c #1C1E33",
";  c #1E202F",
":  c #1E2134",
">  c #1F2439",
",  c #20212F",
"<  c #212335",
"1  c #272936",
"2  c #212639",
"3  c #252A3D",
"4  c #2A2C3C",
"5  c #312F3D",
"6  c #2C303F",
"7  c #30303F",
"8  c #242E40",
"9  c #2B2E41",
"0  c #253042",
"q  c #2C3243",
"w  c #333545",
"e  c #383746",
"r  c #393847",
"t  c #32364A",
"y  c #353949",
"u  c #3B3D4B",
"i  c #343752",
"p  c #3A3D51",
"a  c #423E4C",
"s  c #3F404E",
"d  c #42414F",
"f  c #4B434F",
"g  c #454351",
"h  c #4A4552",
"j  c #4E4955",
"k  c #46465B",
"l  c #4B4A5D",
"z  c #524752",
"x  c #544A55",
"c  c #5A4C56",
"v  c #564E58",
"b  c #5A4F59",
"n  c #5C515A",
"m  c #604F58",
"M  c #63545D",
"N  c #69565D",
"B  c #66585F",
"V  c #6D585F",
"C  c #4D4C61",
"Z  c #534F61",
"A  c #545264",
"S  c #5D5664",
"D  c #56536B",
"F  c #645761",
"G  c #645863",
"H  c #6C5B62",
"J  c #725C62",
"K  c #785F63",
"L  c #6F6165",
"P  c #6D626F",
"I  c #756166",
"U  c #7A6266",
"Y  c #74646D",
"T  c #7C6569",
"R  c #7E696B",
"E  c #676177",
"W  c #6D6575",
"Q  c #6D6779",
"!  c #82676A",
"~  c #836A6C",
"^  c #896C6D",
"/  c #876F70",
"(  c #8B6F70",
")  c #8D7171",
"_  c #937473",
"`  c #9A7573",
"'  c #957A77",
"]  c #9C7976",
"[  c #9E7C79",
"{  c #A37D79",
"}  c #A4817C",
"|  c #AC837D",
" . c #B1867E",
".. c #7B7281",
"X. c #9C8F9A",
"o. c #AD8781",
"O. c #A78A83",
"+. c #AE8E86",
"@. c #A78F88",
"#. c #B28780",
"$. c #B58A82",
"%. c #BB8D84",
"&. c #AF9188",
"*. c #B69187",
"=. c #BC9188",
"-. c #BE9A8F",
";. c #C19087",
":. c #C49389",
">. c #C9978B",
",. c #C4998D",
"<. c #CD998D",
"1. c #D19C8F",
"2. c #C59E92",
"3. c #D29E91",
"4. c #C3A296",
"5. c #CBA295",
"6. c #CFA799",
"7. c #D5A394",
"8. c #DAA494",
"9. c #D2A799",
"0. c #D4AB9C",
"q. c #DAAA9A",
"w. c #CFB0A0",
"e. c #D2B5A7",
"r. c #DDB5A3",
"t. c #DCBDAA",
"y. c #E0B4A1",
"u. c #E0B8A4",
"i. c #E2BDA9",
"p. c #D3C2AE",
"a. c #DCCCB9",
"s. c #E2C2AD",
"d. c #E4C7B1",
"f. c #E4CBB5",
"g. c #E5CFB8",
"h. c #E6D5BD",
"j. c #E4D8BF",
"k. c #E7DEC3",
"l. c #E8DAC2",
"z. c #E5D9C8",
"x. c #E9E4C9",
"c. c #EFE6D2",
"v. c #EEECD5",
"b. c #EFEFD8",
"n. c #EFF0D8",
"m. c #F2F1DD",
"M. c #F4F4E4",
/* pixels */
"o o = w e @ O = > 6 * ; y M ! U M L I n v g t 4 ; * & + + & o o ",
"o + 3 u 5 O + - 3 > * 3 B | 4.-.'  .*.~ n j y 0 > * # + + * + o ",
". # w d 3 o + = > : * s } 6.4.@.T I I v g g y 6 2 = 5 = O & + o ",
"X = u s , o + - > : * s L v 6 3 : : : : : : : ; & 3 b a = % + o ",
"o 2 s y = X @ < > > ; ; ; * ; ; ; ; > > > > > ; % > a M u # O O ",
"@ q u t @ . # < > : # * > 6 0 q q 0 0 0 q q 0 3 > - 9 h h < + + ",
"* w u q O   $ - ; ; 3 s s s s s s s s s s q q 0 8 < - 3 t 9 # + ",
": t q 3 o . + & 3 s j g s s s s s g s s s s s s t 9 2 - 2 : # @ ",
"3 q 3 : X X * w v M j g g s g g h g g g d s s d u u t > = # = = ",
"0 6 : * O : s n H v h g s g s h h g h h d s s g g s y t > % # : ",
"> 3 : # 1 s B I v g g s 7 6 1 1 6 s d h h d s g j j g y q - # * ",
"8 > * 3 s n I n g y 6 4 6 6 6 4 ; ; w d g g g j M n x s y 4 & $ ",
"> : < s R ' B d y 7 6 < , ; ; ; 4 6 ; 6 d g f j J H S j u t 2 $ ",
": : s M } R h 7 s 7 1 7 y s w 4 ; : 6 ; 1 f g n R ! H M g u 9 & ",
"* w v T ) n w y 7 y h x x x x j s 4 2 6 = e x M ) _ T H x a t 2 ",
": h L R I g y s h n I ~ ~ ~ R I B x y s w 1 h N _ } _ U M g y t ",
"q v T ~ H u x n ) } O.*.+.&.&.*.} ~ B f h 6 d J } | ` ! m h d 6 ",
"2 d ) ) M L T U _ ) ) ) ) ) ( ) / ( T H _ x d U } | { ^ m c d w ",
"h H 4.} / O._ ) ' } } | | | | | } } _ ) } ' m ^ |  .} ) U n f w ",
"b U [ =.` ' { } | $.%.%.:.;.;.=. . . .} } ` ^ ] |  .} ) ! M g g ",
"c ~ { 9.*.}  .%.;.>.<.9.9.q.7.1.1.>.;. . . . .| o.#.{ ( R M l l ",
"M ` %.t.,.$.:.7.q.i.s.d.d.d.s.u.q.8.7.1.>.>.%. .{ o.{ ! I S l l ",
"H ~ o.t.0.<.q.s.f.h.h.h.j.h.j.j.g.s.y.y.y.8.:. .| #.{ R P S l i ",
"m U { r.h.u.f.j.k.j.x.x.x.x.x.x.x.x.h.f.f.y.;.| { #._ R Y A i E ",
"b K ` 7.x.x.x.c.t.&.a.n.b.b.b.b.b.v.v.c.l.q.%.{ { { / Y P C D X.",
"c N ^ ;.f.m.m.c.5.w.a.b.b.v.v.b.M.M.M.b.i.>.| { { ` T Y D D ....",
"h m K ` 5.h.z.w.e.c.m.b.b.b.M.M.M.M.z.r.:.| ` ] _ K J G k Q ..Z ",
"a c m K _ | 2.p.c.M.M.M.M.M.M.c.z.t.1.%.{ _ _ ^ K N F k C W E t ",
"r f z z c ` *.,.q.i.d.f.f.t.r.3.:.#.{ _ ! ! K J m c z a A Z D 2 ",
"w e e e c V J ! ` { #.#.| | } { _ ^ ! J J J m a z l a p u t p - ",
"4 3 7 a z z c m N N H J J J J J J J N m c a a a r r t 9 9 9 9 - ",
"w 4 w 5 a a f z z z z z c c m c a a a e e 9 9 9 > > - & 9 8 - > "
};
