/* XPM */
static char *_e5d8a0bfe5549d9d579ce06b068403f86SrN87m1ZWv10Rn[] = {
/* columns rows colors chars-per-pixel */
"32 32 187 2 ",
"   c None",
".  c #020202",
"X  c #0A0706",
"o  c #0D0907",
"O  c #05050B",
"+  c #090709",
"@  c #06080D",
"#  c #0B0A0C",
"$  c #130E0D",
"%  c #1B130E",
"&  c #17100B",
"*  c #070810",
"=  c #0A0B14",
"-  c #0C0E1B",
";  c #110E11",
":  c #100F18",
">  c #0D111C",
",  c #0D1117",
"<  c #141215",
"1  c #1A1412",
"2  c #14141B",
"3  c #1B161A",
"4  c #221814",
"5  c #291D14",
"6  c #241C1C",
"7  c #241A15",
"8  c #2C2017",
"9  c #32241D",
"0  c #0F0F21",
"q  c #0F1222",
"w  c #121424",
"e  c #141925",
"r  c #1A1D24",
"t  c #13162A",
"y  c #141A2C",
"u  c #1C1E2C",
"i  c #161C33",
"p  c #191E33",
"a  c #211B22",
"s  c #231F2D",
"d  c #1C212D",
"f  c #1B2234",
"g  c #1B2439",
"h  c #1E283E",
"j  c #2B252A",
"k  c #272226",
"l  c #362B29",
"z  c #3B2E2C",
"x  c #372825",
"c  c #212433",
"v  c #252933",
"b  c #242B3D",
"n  c #2C2C39",
"m  c #252837",
"M  c #2D313E",
"N  c #422F27",
"B  c #463124",
"V  c #4C3629",
"C  c #513A2E",
"Z  c #413434",
"A  c #483738",
"S  c #523E34",
"D  c #594339",
"F  c #654A3B",
"G  c #1E2A45",
"H  c #1C2641",
"J  c #232D45",
"K  c #212E49",
"L  c #2D3344",
"P  c #24324C",
"I  c #2A334C",
"U  c #2F394F",
"Y  c #333443",
"T  c #343B4C",
"R  c #373948",
"E  c #2C3A54",
"W  c #2B3A55",
"Q  c #313C54",
"!  c #393F55",
"~  c #443D46",
"^  c #2F405C",
"/  c #354157",
"(  c #3B4254",
")  c #34425B",
"_  c #3E495E",
"`  c #3D4E69",
"'  c #374864",
"]  c #3F506A",
"[  c #4C4142",
"{  c #4E444C",
"}  c #4E494D",
"|  c #594D4D",
" . c #544748",
".. c #484650",
"X. c #404758",
"o. c #574F59",
"O. c #5F5053",
"+. c #664E45",
"@. c #674E4A",
"#. c #665149",
"$. c #7D5D4D",
"%. c #715548",
"&. c #604F52",
"*. c #665351",
"=. c #6C5351",
"-. c #665A5C",
";. c #6A5B58",
":. c #7C5E52",
">. c #705D5D",
",. c #765D55",
"<. c #7E635B",
"1. c #424E64",
"2. c #454F65",
"3. c #435067",
"4. c #45546E",
"5. c #4D566A",
"6. c #4B546A",
"7. c #535A6D",
"8. c #525664",
"9. c #4C5A74",
"0. c #485670",
"q. c #525F78",
"w. c #525E74",
"e. c #5F626E",
"r. c #55627B",
"t. c #5A647B",
"y. c #576074",
"u. c #7D6F6F",
"i. c #656C7F",
"p. c #6C6A73",
"a. c #856655",
"s. c #87695C",
"d. c #89756B",
"f. c #8F796D",
"g. c #9B7C6C",
"h. c #957669",
"j. c #867674",
"k. c #8E7E79",
"l. c #9C857C",
"z. c #9D887F",
"x. c #988176",
"c. c #A28575",
"v. c #A98C7E",
"b. c #A6897B",
"n. c #626E87",
"m. c #657087",
"M. c #70798E",
"N. c #747D93",
"B. c #7B849A",
"V. c #9E8E8B",
"C. c #9B8581",
"Z. c #A58D84",
"A. c #AC9283",
"S. c #A2918C",
"D. c #B49B8D",
"F. c #B19487",
"G. c #A79897",
"H. c #B39D94",
"J. c #BDA495",
"K. c #BDA69B",
"L. c #BEA89E",
"P. c #979CB0",
"I. c #C2AB9E",
"U. c #C9AF9F",
"Y. c #C4ACA1",
"T. c #C9B1A3",
"R. c #CBB5AA",
"E. c #D4BBAC",
"W. c #CDB8B2",
"Q. c #D4BDB2",
"!. c #D6C0B5",
"~. c #DBC6BC",
"^. c #DDC9BF",
"/. c #D9C2B6",
"(. c #DEC9C0",
"). c #E3CEC4",
"_. c #E6D0C7",
"`. c #E4D1C9",
"'. c #E9D5CE",
"]. c #EDDBD5",
"[. c #EFDDD8",
"{. c #EAD7D1",
"}. c #F0DFDA",
"|. c #F1E1DE",
" X c #F4E6E4",
".X c #F5E8E7",
"XX c #F7EAEA",
/* pixels */
"                              . . . . . . .                     ",
"                            . O @ @ O . . .                     ",
"                            . O - * O . . . .       . . . .     ",
"                            . . O . . . . . . . . . - = O . .   ",
"                . . . .   . O @ - = . . - i g t - O * = = * O . ",
"              . . O . . . O > t = @ . O * = y P 1.M . O O = = @ ",
"            . @ @ = @ . . * t q O O - - > O . y ) 4.d . . @ - - ",
"          . < e - - > O . O @ . . w i i G P > O q g f O . . O - ",
"          # d b q * @ . . . . . . @ O @ f ^ E = > H E 2.r . . @ ",
"          , f y - @ @ # . . . . . - f b f y t = O g 1.q.7.@ . . ",
"          e y w # v / b e # X # t w H ` m.R O . . w 5.9.t.d y u ",
"        . q w = # _ T 3 1 4 4 6 2 = f ) m.M.r . - q E ) 3.d y Q ",
"    @ = O M ( e < L j x C D #.+.4 o 2 K ] n.X.. 0 0 t t g O @ g ",
". > i * v N.9.s a x +.h.g.b.D.K.#.& # t E 4.( O * * - L T , . @ ",
"O h i O 8.B.( j l C $.v.J.Q._.].W.;.5 ; p W f . * @ = f t.i.= . ",
". * * + 5.2.R { *.d.h.c.K.).[.[.[.(.z. .Y b # . . . . O Q B.M . ",
"L L c 2 L R o.=.z.Q.Q.A.U.`.'._.'.'.l.{ 5.1.M O > = . . p r.T . ",
"0.E I b 6 Z @.:.A.(.`.Y.D.Q._.).~.^.<.z j ! q.b J / = . - Q T . ",
"I L b k 9 D %.a.c.W.`.(.T.{. X|.'.Q.:.N 5 s ) _ t P y . = J L . ",
"t.7.n j | >.<.x.D.D.`./.E. XXX X|.~.$.B 5 a f I > - > = = g 2 . ",
"t.v % l O.*.<.D.!.D.J.!.`. XXX.X|.^.a.B 5 3 2 - = t E 0.y.2.2 . ",
"f $ % l A +.s.K.^.!.J.'. X XXXXX X`.g.B 5 1 # # t p I 4.N.P.e.. ",
"= o $ 5 B F a.D.Q.^.K.). X XXXXXXX].Y.F 8 % o - 0 - w K r.B.i.# ",
"* . $ l S F s.K.K.I.~.{.}. XXXXXXX|.~.H.k.} 2 - - = - i E 9.w.d ",
"- + % Z *.,.s.v.R.Y.Q.].|. X.XXXXX X^.I.p.5.( e O O = w G ` 5.b ",
"* o 4 [ u.S.H.c.F.T./.]. X X X.XXX X`.Z...2.3.T # . * - g ' 3.e ",
"O o 6 Z &.j.H.Y.g.D.^.]. X X.X X.X X[.Z.~ ( ) ) b . O - t P ) w ",
". ; j 9 A -.k.L.D.K.!.{.|..XXX.X X X[.C.~ Y T E E - . = - i K - ",
". < 6 5 A -.j.H.T.T.I.^.).].|.[.`.).W.>.n b c P K y . = * t y O ",
"w ; 1 1 l [ -.V.V.S.S.f.z.x.S.G.z.d.| a c 2 = t t q O = @ @ @ . ",
"O . X o $ 1 a j k 2 3 < $ o ; : ; @ O . @ O . . O . . O @ . . . ",
". . . . . . O . . . . . . . . . . . . . . . . . . . . .         "
};
