/* XPM */
static char *result[] = {
/* columns rows colors chars-per-pixel */
"32 32 73 1 ",
"  c #010102",
". c #04060A",
"X c #050A0C",
"o c #07100F",
"O c #070611",
"+ c #0A0713",
"@ c #070C11",
"# c #090D14",
"$ c #0C0D1A",
"% c #071111",
"& c #0A1315",
"* c #0C1917",
"= c #0C131B",
"- c #0D1B1C",
"; c #0E211E",
": c #10221F",
"> c #110E22",
", c #0E1521",
"< c #0F1A22",
"1 c #111423",
"2 c #111A25",
"3 c #141329",
"4 c #131D2B",
"5 c #171634",
"6 c #191532",
"7 c #181836",
"8 c #161839",
"9 c #1B193D",
"0 c #0F2321",
"q c #112523",
"w c #132926",
"e c #14222E",
"r c #142C2B",
"t c #16322E",
"y c #162431",
"u c #192537",
"i c #152A34",
"p c #192D36",
"a c #1A2738",
"s c #1B2C3C",
"d c #183432",
"f c #1A3935",
"g c #1A343D",
"h c #1C3C3A",
"j c #1D433C",
"k c #214A3E",
"l c #171C41",
"z c #1C1D44",
"x c #1C2D41",
"c c #1E234E",
"v c #1E3344",
"b c #1B3A44",
"n c #1F3748",
"m c #1E3A49",
"M c #1D2A54",
"N c #203A4B",
"B c #1E4541",
"V c #214644",
"C c #224C44",
"Z c #21444D",
"A c #214B4B",
"S c #245446",
"D c #265B47",
"F c #295B46",
"G c #25554A",
"H c #265B4A",
"J c #214451",
"K c #234A52",
"L c #265454",
"P c #265059",
"I c #27604A",
"U c #29644C",
"Y c #2A694C",
/* pixels */
" ,#.&rfq.>cMMM99zl$   #,yX$,&,,3",
".=,&:fd* 3lcz56595$  ##X. .&$8zz",
"2##.:dwX >$>>>1>33+  ,44=  X>lzz",
"e$##::*  O&,.===>>+ $4421# .>zzz",
"4$2=**    @&@#2&++. $,$&$# .1479",
"1$=X.       . =## @...#<X.  .#.$",
"1=.            .#.#   X  X X&imm",
"&#                     @$# =ynJJ",
".      .oo...           &ihAVpxm",
"      ;jjjwo.         .eBLLLLA4u",
"     :HYIGjdX  .      4KPPLPJJy=",
"    XjUUSCjf; .0   @w-bmJJLBnn< ",
"    XCGBBhr00X .    &X<444ppyy@ ",
"     rjft0<e*.        X% =rd==q.",
"      **%ip=@.            o.. .@",
"        @r%      .#X@...2# .   O",
"   ..          .====<=,yN4 X&o;*",
"  ,##@,.     ..2v2#,7usmm=o:r-ww",
"@=1,====.    #4vn&&4uxmme%qwd;qq",
"==2s4.1e@   =4sv<@e4444,=-qrt;qr",
"=4sx2#y1    =es2 .0y@  #=-tf;;td",
"4pNx#$# =.  .X#X@=4y% @@,*r;;rdf",
"1Ns1   #u@.,$ =q&pvyqX#&4@  *wff",
"X2q2q  ex# @..&  $4@$$$=e=   %;;",
"X#-X&. ps$ .=# .XX..$&=4e=@@<-$&",
"   .=@XvN#.&&1*:;;.X=ysvp#@.-,,,",
"  #1=X-Zg. &*-qwrw%#@ymmu. .#,,3",
"  2a&#pZe.&*wqrddt= &@$&@  #,,,<",
". #y2eZgX.&:qwjHjt* <X X=@.$,,,y",
",@ =yNv&+X&wwdSHCj:.    X=0#444y",
"1==#.o. 2#*wwkHGGFw  @@=. ..@,=,",
"1===#  #2oo:rCFDDD- X,$=#X.&<,<4"
};
