/* XPM */
static char *ddc680f6a2cb43038ad5690a6253ae262XkKhnn9baJB8uUP[] = {
/* columns rows colors chars-per-pixel */
"32 32 40 1 ",
"  c black",
". c #CFC1C8",
"X c #10131A",
"o c #343643",
"O c #040508",
"+ c #5B5F72",
"@ c #2A2D3B",
"# c #5E6275",
"$ c #5F6376",
"% c #242835",
"& c #1D202C",
"* c #181B25",
"= c #424656",
"- c #4A4E60",
"; c #515567",
": c #354057",
"> c #1F2433",
", c #252D3F",
"< c #565A6D",
"1 c #393B49",
"2 c #0E0D11",
"3 c #45495A",
"4 c #2C354A",
"5 c #2F3240",
"6 c #CBBEC6",
"7 c #3C4050",
"8 c #524E56",
"9 c #B0A5AE",
"0 c #A399A2",
"q c #968D96",
"w c #5C5961",
"e c #BFB4BC",
"r c #6F6A72",
"t c #4E4346",
"y c #B9AEB6",
"u c #79737C",
"i c #542E1D",
"p c #743F26",
"a c #807A82",
"s c #3D2115",
/* pixels */
"                                ",
"           O2XXX2O              ",
"         O*,44:::4,X            ",
"        O*>>@5@>,:::%O          ",
"        X5r0yy9q8*>::42         ",
"       O89..6...6uX&,:4X        ",
"       te.666....685@,:42       ",
"      X0..6669rq6.q5<@,:,O      ",
"      oe996.eo X0.0o#;%4:*      ",
"     *=q*%0.9X2Ow.ao$$3>:4O     ",
"     o1r22r.eopsw91-$##5,:X     ",
"    O-78tiw6.q8tu17$##$;&:&     ",
"    O-<5180.6eqw@=#####<*,,     ",
"    O3$;o1ww8o@o;$####$-%>4O    ",
"     1$$#;77=-<$$#####+53@4X    ",
"     &+##$$$$$###$$###7o#1,&    ",
"    O*=$#++#####;o3$+15<$=%>    ",
"    27%=+o*;$$$$=OX7@o<$$3>%    ",
"    O3;@%2 o---=5OO%=+$#+@&%    ",
"     o$+3& *%%%>@2*+$##$=&%>    ",
"     X;$$;&%<+++<%3$##$3@1,*    ",
"      &-$$+;#####+##$+7@;1,X    ",
"      &@7<$$$$$$$$#<=@o<#@>O    ",
"      2=o%1-----=15@@3+$-&X     ",
"       &<;15%%%%@o=<#$$;&XO     ",
"       O@+$#++++#$$$$+3* O      ",
"        O&7;+##$##+<=@*O        ",
"          O2&@5o555%>&O         ",
"            OX*%%&*X2           ",
"                                ",
"                                ",
"                                "
};
