/* XPM */
static char *result[] = {
/* columns rows colors chars-per-pixel */
"32 32 103 2 ",
"   c #010102",
".  c #05060A",
"X  c #07080D",
"o  c #09090B",
"O  c #070810",
"+  c #0B0C12",
"@  c #0D0F18",
"#  c #100F11",
"$  c #0F101C",
"%  c #111115",
"&  c #14141B",
"*  c #18171C",
"=  c #1A1A1E",
"-  c #141523",
";  c #161A24",
":  c #1D1C23",
">  c #161B2A",
",  c #1A1D2B",
"<  c #1E2332",
"1  c #1F2538",
"2  c #212126",
"3  c #222229",
"4  c #29292E",
"5  c #212634",
"6  c #242835",
"7  c #2D2C32",
"8  c #232739",
"9  c #24293B",
"0  c #292E3C",
"q  c #302E35",
"w  c #313135",
"e  c #34343B",
"r  c #38373C",
"t  c #38383B",
"y  c #262D41",
"u  c #2A2F43",
"i  c #2C3143",
"p  c #2F3549",
"a  c #333544",
"s  c #3E3D41",
"d  c #343A4E",
"f  c #403E42",
"g  c #3C4255",
"h  c #434246",
"j  c #43434B",
"k  c #4A4750",
"l  c #504C55",
"z  c #535056",
"x  c #55535B",
"c  c #58555C",
"v  c #59595D",
"b  c #575761",
"n  c #5E5B64",
"m  c #5E5D68",
"M  c #605E63",
"N  c #656367",
"B  c #64626B",
"V  c #6A686D",
"C  c #696772",
"Z  c #6E6E78",
"A  c #747379",
"S  c #7C7B81",
"D  c #817E87",
"F  c #827F89",
"G  c #848187",
"H  c #83828D",
"J  c #89878A",
"K  c #8B8690",
"L  c #8D8B93",
"P  c #93929A",
"I  c #9A979C",
"U  c #9C999F",
"Y  c #9E9CA3",
"T  c #A7A5AB",
"R  c #A9A6AD",
"E  c #AEADAF",
"W  c #AEAAB0",
"Q  c #B4B2B7",
"!  c #B5B4B9",
"~  c #BAB7BC",
"^  c #BEBCC1",
"/  c #C0BFC4",
"(  c #C4C1C6",
")  c #C6C6CB",
"_  c #CBC7CB",
"`  c #CCCBCE",
"'  c #CDCCD1",
"]  c #D2CDD2",
"[  c #D2D1D4",
"{  c #D6D5D9",
"}  c #D8D7DB",
"|  c #DCDADD",
" . c #E0DEE1",
".. c #E4E2E5",
"X. c #E6E6E8",
"o. c #E8E7EA",
"O. c #ECEBEC",
"+. c #F1EEF0",
"@. c #F4F2F4",
"#. c #F7F6F8",
"$. c #F9F7F9",
"%. c #FFFFFF",
"&. c None",
/* pixels */
"&.&.&.&.&.&.&.&.&.&.&.&.&.&.&.&.&.&.&.&.&.&.&.&.&.&.&.&.&.&.&.&.",
"&.&.&.&.&.&.&.&.&.&.&.&.&.&.&.&.&.&.&.&.&.&.&.&.&.&.&.&.&.&.&.&.",
"&.&.&.&.&.; +   &.&.&.&.&.&.&.&.&.&.&.&.&.&.  . = # &.&.&.&.&.&.",
"&.&.&.j P C $   &.&.&.&.&.&.&.&.&.&.&.&.&.&.&.. e G N = &.&.&.&.",
"&.X m | %.H +   &.&.&.&.&.&.&.&.&.&.&.&.&.&.&.. : Y $.W e   &.&.",
"  a } %. .n + &.&.&.&.&.&.&.&.&.&.&.&.&.&.&.&.&., Z | %.^ : &.&.",
"  F %.@.B   &.&.&.&.&.&.&.&.&.&.&.&.&.&.&.&.&.&.&.O l X.#.b   &.",
"% W %.' 2 &.&.&.&.&.&.&.&.&.&.&.&.&.&.&.&.&.&.&.&.&.% Q %.K . &.",
"+ L %.| q   &.&.&.&.&.&.&.&.&.&.&.&.&.&.&.&.&.&.&.&.3 ) %.F   &.",
"  a { %.D o &.&.&.&.&.&.&.&.&.&.&.&.&.&.&.&.&.&.&.- K %.O.k   &.",
"&.  j _ +.L s 7 w t f j h h t s s t w q 7 ; % 4 x R #.O.A X &.&.",
"&.&.  3 U #.O. .| ..o.O.O.O.O.O.O.o... .[ ~ ! { +.X.Y j X &.&.&.",
"&.&.&.&.7 ] %.%.%.%.%.%.%.%.%.%.%.%.%.%.%.%.%.%.( e . &.&.&.&.&.",
"&.&.&.&.: _ %.%.%.%.%.%.%.%.%.%.%.%.%.%.%.%.%.%./ & &.&.&.&.&.&.",
"&.&.&.&.: ' %.%.%.%.%.%.%.%.%.%.%.%.%.%.%.%.%.%.( *   &.&.&.&.&.",
"&.&.&.&.: ' %.} Y S L [ %.%.%.%.%.%.$.[ Q ~ | %.~ %   &.&.&.&.&.",
"&.&.&.&.= _ ~ 4       7 ) %.%.%.%.@.S = o o 3 U R + &.&.&.&.&.&.",
"&.&.&.&.& Q A           I %.%.%.%.] :         x J o &.&.&.&.&.&.",
"&.&.&.&.  N ' n = o : v | %.%.%.%.@.G : o   3 Y c   &.&.&.&.&.&.",
"&.&.&.&.&.o A [ [ / } $.%.%.%.%.%.%.%.| Q T ~ A : *   &.&.&.&.&.",
"&.&.&.&.&.&.  7 V T ~ [ |  ...X.X.| ' ( E J z q q =   &.&.&.&.&.",
"&.&.&.&.&.&.&.&.&.  o 2 4 4 q w 4 7 2 & t n 4 % &.&.&.&.&.&.&.&.",
"&.&.&.&.&.&.&.&.    < g 8 y 1 > # d 8 + = w o &.&.&.&.&.&.&.&.&.",
"&.&.&.&.&.&.&.&.  3 p < d i 1 @ & i g ,     &.&.&.&.&.&.&.&.&.&.",
"&.&.&.&.&.&.&.  . < 5 g i 1 > + i i 8 g &   &.&.&.&.&.&.&.&.&.&.",
"&.&.&.&.&.@ +   $ p d 9 u < + d 9 p d 5 >   &.&.&.&.&.&.&.&.&.&.",
"&.&.&.  X : & + p i i i -     6 g 5 6 i &     &.&.&.&.&.&.&.&.&.",
"&.&.        + 5 9 5 ; .         & 0 0 < > @ . . &.&.&.&.&.&.&.&.",
"&.&.&.&.      .                     . + O       &.&.&.&.&.&.&.&.",
"&.&.&.&.&.&.&.&.&.&.                  &.&.&.&.&.&.&.&.&.&.&.&.&.",
"&.&.&.&.&.&.&.&.&.&.&.      &.      &.&.&.&.&.&.&.&.&.&.&.&.&.&.",
"&.&.&.&.&.&.&.&.&.&.&.&.    &.&.    &.&.&.&.&.&.&.&.&.&.&.&.&.&."
};
