/* XPM */
static char *result[] = {
/* columns rows colors chars-per-pixel */
"32 32 254 2 ",
"   c black",
".  c #010101",
"X  c #000002",
"o  c #010102",
"O  c #020203",
"+  c #020205",
"@  c #030205",
"#  c #030307",
"$  c #040507",
"%  c #060507",
"&  c #040408",
"*  c #050608",
"=  c #04040A",
"-  c #04050C",
";  c #05060C",
":  c #06070D",
">  c #07080A",
",  c #06080D",
"<  c #09090D",
"1  c #08090E",
"2  c #090A0E",
"3  c #0D0E0F",
"4  c #080811",
"5  c #090A10",
"6  c #0C0C11",
"7  c #0A0B14",
"8  c #0B0D14",
"9  c #0C0D14",
"0  c #0F0F14",
"q  c #0D0E17",
"w  c #0C0E18",
"e  c #0E1117",
"r  c #0D101C",
"t  c #0D111F",
"y  c #111113",
"u  c #111218",
"i  c #111319",
"p  c #12141B",
"a  c #15161E",
"s  c #18181C",
"d  c #131623",
"f  c #151721",
"g  c #111424",
"h  c #151823",
"j  c #1B1C26",
"k  c #171B28",
"l  c #171B2B",
"z  c #151B2C",
"x  c #1A1E29",
"c  c #181C2A",
"v  c #1A1E2B",
"b  c #1E1F2B",
"n  c #191D2C",
"m  c #1D212D",
"M  c #1F222D",
"N  c #1D222F",
"B  c #1E222F",
"V  c #1F2331",
"C  c #1E2335",
"Z  c #1F2537",
"A  c #232327",
"S  c #242226",
"D  c #202128",
"F  c #202029",
"G  c #222228",
"H  c #23232B",
"J  c #21232E",
"K  c #20222F",
"L  c #26252E",
"P  c #2A292D",
"I  c #222531",
"U  c #212535",
"Y  c #222636",
"T  c #2B2A32",
"R  c #2A2B33",
"E  c #2E2F33",
"W  c #2A2B37",
"Q  c #2D2E34",
"!  c #2E2D37",
"~  c #2F2F36",
"^  c #2E2E37",
"/  c #22283A",
"(  c #22283B",
")  c #252938",
"_  c #22293E",
"`  c #252B3F",
"'  c #292B38",
"]  c #282D3A",
"[  c #2C2C38",
"{  c #2E2E39",
"}  c #292E3F",
"|  c #302F36",
" . c #2E303C",
".. c #323134",
"X. c #313138",
"o. c #31313B",
"O. c #343338",
"+. c #36343A",
"@. c #36353B",
"#. c #31323D",
"$. c #31323E",
"%. c #33323E",
"&. c #36353E",
"*. c #36383E",
"=. c #272D43",
"-. c #282E43",
";. c #2A2F42",
":. c #2C3143",
">. c #2C3246",
",. c #2D3449",
"<. c #363640",
"1. c #3D3C41",
"2. c #393845",
"3. c #31374A",
"4. c #31374B",
"5. c #33384A",
"6. c #3D3C48",
"7. c #3E3D49",
"8. c #3E3D4A",
"9. c #373D50",
"0. c #3D455A",
"q. c #404146",
"w. c #404147",
"e. c #414147",
"r. c #404048",
"t. c #47424D",
"y. c #4E4C4F",
"u. c #494753",
"i. c #4A4952",
"p. c #4A4A55",
"a. c #4C4B54",
"s. c #4F4B56",
"d. c #4F4F55",
"f. c #4F4C58",
"g. c #524E5A",
"h. c #535054",
"j. c #565355",
"k. c #565357",
"l. c #575456",
"z. c #505059",
"x. c #57555A",
"c. c #55515C",
"v. c #58565C",
"b. c #59575D",
"n. c #58575E",
"m. c #5A585B",
"M. c #5A585E",
"N. c #595A5F",
"B. c #5E5E63",
"V. c #5A5B64",
"C. c #5C5F65",
"Z. c #5D5F68",
"A. c #625E61",
"S. c #615E64",
"D. c #5F6167",
"F. c #646267",
"G. c #626269",
"H. c #636469",
"J. c #61626C",
"K. c #65616D",
"L. c #66616E",
"P. c #68656C",
"I. c #6A6471",
"U. c #6E6D71",
"Y. c #6D6D72",
"T. c #6C6B74",
"R. c #726F73",
"E. c #747173",
"W. c #727175",
"Q. c #747376",
"!. c #79777B",
"~. c #79787C",
"^. c #7D7D86",
"/. c #7F7F8A",
"(. c #817985",
"). c #837A87",
"_. c #817F84",
"`. c #867D89",
"'. c #868087",
"]. c #848286",
"[. c #848386",
"{. c #82808B",
"}. c #8B818D",
"|. c #88878E",
" X c #8A888D",
".X c #8C8392",
"XX c #8F8593",
"oX c #8B8A90",
"OX c #8F8D92",
"+X c #9C9A9F",
"@X c #9C99A1",
"#X c #A094A2",
"$X c #A498A4",
"%X c #A19EA5",
"&X c #A4A2A6",
"*X c #A4A2A7",
"=X c #A5A4A7",
"-X c #A6A4A8",
";X c #A7A5AC",
":X c #B4B2B6",
">X c #B4B2B8",
",X c #B8B4BB",
"<X c #BAB8BD",
"1X c #BEBBBF",
"2X c #BFBDC3",
"3X c #C3C0C4",
"4X c #C3C0C5",
"5X c #C6C1C7",
"6X c #C7C4C9",
"7X c #C5C6CB",
"8X c #CAC8CD",
"9X c #CBCACE",
"0X c #D6D4D8",
"qX c #D8D5D9",
"wX c #DBD9DD",
"eX c #DEDCDE",
"rX c #E2E0E2",
"tX c #E1E1E4",
"yX c #E6E3E5",
"uX c #E6E3E6",
"iX c #E6E4E5",
"pX c #E4E4E7",
"aX c #E5E5E8",
"sX c #E7E7E9",
"dX c #E8E7E9",
"fX c #EAE8EA",
"gX c #EBE8EA",
"hX c #EAEBED",
"jX c #EBECED",
"kX c #EFEEF0",
"lX c #F1F0F1",
"zX c #F3F3F3",
"xX c #F6F4F5",
"cX c #F7F6F8",
"vX c #F8F7F8",
"bX c #F9F7F8",
"nX c #FAF9F9",
"mX c #F9F9FA",
"MX c #FAF8FA",
"NX c gray98",
"BX c #FBFAFB",
"VX c #FBFBFB",
"CX c #FBFBFC",
"ZX c #FCFBFC",
"AX c #FCFCFD",
"SX c #FDFDFD",
"DX c #FEFCFC",
"FX c #FEFDFD",
"GX c #FDFDFE",
"HX c #FEFDFE",
"JX c #FFFEFE",
"KX c #FFFEFF",
"LX c white",
"PX c None",
/* pixels */
"PXPXPXPXPXPXPXPXPXPXPXPXPXPXPXPXPXPXPXPXPXPXPXPXPXPXPXPXPXPXPXPX",
"PXPXPXPXPXPXo.j # o PXPXPXPXPXPXPXPXPXPXPXPXPXPX+ h H PXPXPXPXPX",
"PXPXPXPX&.@X,X^ PXPXPXPXPXPXPXPXPXPXPXPXPXPXPXPXPXf {. XQ PXPXPX",
"PXPXPX| 4XLX6X#.X PXPXPXPXPXPXPXPXPXPXPXPXPXPXPXPXT 5XLX9X@.PXPX",
"PXPX6 %XLX3XO.PXPXPXPXPXPXPXPXPXPXPXPXPXPXPXPXPXPXPXm.iXLX<Xs PX",
"PXPX+.gXdX1.PXPXPXPXPXPXPXPXPXPXPXPXPXPXPXPXPXPXPXPX  _.LXMXk.  ",
"PXPXz.DX7Xi PXPXPXPXPXPXPXPXPXPXPXPXPXPXPXPXPXPXPXPXPXh.vXHXA.  ",
"PXPXe.lXfXi.PXPXPXPXPXPXPXPXPXPXPXPXPXPXPXPXPXPXPXPXPXx.BXsXE PX",
"PXPXPX!.xXqXn.< PXPXPXPXPXPXPXPXPXPXPXPXPXPXPXPXPXPXG >XLX+X> PX",
"PXPXPX% R.rXkX*XB.w.q.b.Y.W.W.Q.U.H.D.C.N.l.j.S./.|.8XKX1XP PXPX",
"PXPXPXPXPX..~.wXBXhXjXvXHXLXLXLXLXGXGXAXCXnXbXbXZXLXyX].S PXPXPX",
"PXPXPXPXPXPXu 2XLXLXLXLXLXLXLXLXLXLXLXLXLXLXLXLXLXLX'.  PXPXPXPX",
"PXPXPXPXPXPXR tXLXLXLXLXLXLXLXLXLXLXLXLXLXLXLXLXLXZXP.PXPXPXPXPX",
"PXPXPXPXPXPXX.aXLXLXLXLXLXLXLXLXLXLXLXLXLXLXLXLXLXmXM.  PXPXPXPX",
"PXPXPXPXPXPX~ pXLXLXLXLXLXLXLXLXLXLXLXLXLXLXLXLXLXmXv.  PXPXPXPX",
"PXPXPXPXPXPXD 0XLXLXLXLXLXLXLXLXLXLXLXLXLXLXLXLXLXcXd.  PXPXPXPX",
"PXPXPXPXPXPX2 ;XLXLXLXLXLXLXLXLXLXLXLXLXLXLXLXLXJXkX*.PXPXPXPXPX",
"PXPXPXPXPXPX# p.uXLXLXLXLXLXLXLXLXLXLXLXLXLXLXLXLX-Xy PXPXPXPXPX",
"PXPXPXPXPX$ { %.a.OX:X&XeXKXSXVXNXVXFXLXLXLXLXzX=XA PXPXPXPXPXPX",
"PXPXPXPXPXPX0 H W [ ! <.r.F.G.V.Z.J.T.^.oX[.E.y.3 PXPXPXPXPXPXPX",
"PXPXPXPXPXPXPXPXX L .X$X).t.f t 4._ ,.g l =   PXPXPXPXPXPXPXPXPX",
"PXPXPXPXPXPXPXPXPXa u.I.XX#X}.s.J n } d -./ 5 PXPXPXPXPXPXPXPXPX",
"PXPXPXPXPXPXPXPXPXPX- v K 8.L.`.(.g.F V 4.=.C & PXPXPXPXPXPXPXPX",
"PXPXPXPXPXPXPXPXPXPXw Z ;.9.c I 2.c.K.f.$.U z : PXPXPXPXPXPXPXPX",
"PXPXPXPXPXPXPXPXPX@ r ( :.Y 3.0.k ; B  .6.7.' 9 o PXPXPXPXPXPXPX",
"PXPXPXPXPXPXPXPXPX7 ` >.:.5.] e o . 8 x N m b f ,   PXPXPXPXPXPX",
"PXPXPXPXPXPXPXPXPXq ) M p *             O 1 4 + o     PXPXPXPXPX",
"PXPXPXPXPXPXPXPXPXPXPXPXPX                PXPXPXPXPXPXPXPXPXPXPX",
"PXPXPXPXPXPXPXPXPXPXPXPXPXPX    PXPX    PXPXPXPXPXPXPXPXPXPXPXPX",
"PXPXPXPXPXPXPXPXPXPXPXPXPXPXPX  PXPX    PXPXPXPXPXPXPXPXPXPXPXPX",
"PXPXPXPXPXPXPXPXPXPXPXPXPXPXPXPXPXPXPXPXPXPXPXPXPXPXPXPXPXPXPXPX",
"PXPXPXPXPXPXPXPXPXPXPXPXPXPXPXPXPXPXPXPXPXPXPXPXPXPXPXPXPXPXPXPX"
};
