/* XPM */
static char *result[] = {
/* columns rows colors chars-per-pixel */
"32 32 243 2 ",
"   c black",
".  c #010100",
"X  c #000001",
"o  c #010101",
"O  c #010102",
"+  c #020202",
"@  c #020203",
"#  c gray1",
"$  c #030304",
"%  c #040405",
"&  c gray2",
"*  c #040406",
"=  c #050506",
"-  c #050507",
";  c #060606",
":  c #070707",
">  c #050608",
",  c #060608",
"<  c #060708",
"1  c #070709",
"2  c #07080A",
"3  c gray3",
"4  c #090909",
"5  c #08090C",
"6  c #0A0A0D",
"7  c #0A0B0D",
"8  c #0B0C0E",
"9  c gray5",
"0  c #0C0D10",
"q  c #0D0E11",
"w  c #0D0E12",
"e  c #0E0F12",
"r  c #0E1013",
"t  c #0F1014",
"y  c #111111",
"u  c #121213",
"i  c #131313",
"p  c #101115",
"a  c #101116",
"s  c #101216",
"d  c #111216",
"f  c gray8",
"g  c gray9",
"h  c #111318",
"j  c #121318",
"k  c #121418",
"l  c #121419",
"z  c #131419",
"x  c #13151A",
"c  c #14161C",
"v  c #15171C",
"b  c #15171D",
"n  c #16171D",
"m  c #16181E",
"M  c #17181E",
"N  c #17181F",
"B  c #17191F",
"V  c #181818",
"C  c gray10",
"Z  c gray11",
"A  c #1D1D1D",
"S  c #1E1E1E",
"D  c #181920",
"F  c #181A20",
"G  c #181A21",
"H  c #1A1C23",
"J  c #1B1D24",
"K  c #1B1D25",
"L  c #1B1E26",
"P  c #1C1E25",
"I  c #1C1E26",
"U  c #1C1F26",
"Y  c #1D1F27",
"T  c #1D2028",
"R  c #1E2029",
"E  c #222222",
"W  c #232323",
"Q  c #272727",
"!  c #20222B",
"~  c #20232B",
"^  c #20232C",
"/  c #21232C",
"(  c #21242D",
")  c #22242D",
"_  c #21242E",
"`  c #22242E",
"'  c #23262F",
"]  c #282828",
"[  c gray16",
"{  c gray17",
"}  c gray18",
"|  c #242731",
" . c #252731",
".. c #252831",
"X. c #252832",
"o. c #262832",
"O. c #262933",
"+. c #262934",
"@. c #282B36",
"#. c #292C37",
"$. c #292C38",
"%. c #2A2D38",
"&. c #2A2D39",
"*. c #2B2E39",
"=. c #2B2E3A",
"-. c #2C2F3A",
";. c #2C2F3C",
":. c #2C303B",
">. c #2D303C",
",. c #2D313D",
"<. c #2E313E",
"1. c #2E323E",
"2. c #2F323F",
"3. c #2F333F",
"4. c gray19",
"5. c #323232",
"6. c #343434",
"7. c #373737",
"8. c #343539",
"9. c gray22",
"0. c #393939",
"q. c #3A3A3A",
"w. c #3E3E3E",
"e. c #2F3240",
"r. c #2F3340",
"t. c #303340",
"y. c #303441",
"u. c #313441",
"i. c #313542",
"p. c #313544",
"a. c #343745",
"s. c #353947",
"d. c #363A48",
"f. c #373B49",
"g. c #373C4A",
"h. c #383C4B",
"j. c #3A3E4E",
"k. c #3A3F4E",
"l. c #3B3F4F",
"z. c #3B404F",
"x. c #3C4151",
"c. c #3D4252",
"v. c #3E4353",
"b. c #434343",
"n. c #414247",
"m. c #464646",
"M. c #44464C",
"N. c #494949",
"B. c gray29",
"V. c #4B4B4B",
"C. c #4C4C4C",
"Z. c #404557",
"A. c #4B4C53",
"S. c #414658",
"D. c #4E5056",
"F. c #535353",
"G. c #505157",
"H. c gray33",
"J. c #555555",
"K. c #56585C",
"L. c #585858",
"P. c #5B5B5B",
"I. c gray36",
"U. c gray37",
"Y. c #5F5F5F",
"T. c #606060",
"R. c #616267",
"E. c #646464",
"W. c #676767",
"Q. c #696A6E",
"!. c #6D6D6D",
"~. c gray43",
"^. c #6F6F6F",
"/. c #727272",
"(. c #747474",
"). c #797979",
"_. c #7B7B7B",
"`. c gray50",
"'. c #818181",
"]. c gray51",
"[. c #838383",
"{. c #828285",
"}. c gray53",
"|. c gray54",
" X c #8B8B8B",
".X c gray56",
"XX c #8D8E90",
"oX c #929292",
"OX c #939393",
"+X c gray58",
"@X c #979797",
"#X c #A0A0A0",
"$X c gray63",
"%X c gray64",
"&X c #A4A4A4",
"*X c gray65",
"=X c #A9A9A9",
"-X c #ACACAC",
";X c gray69",
":X c #B4B4B4",
">X c #B6B6B6",
",X c gray72",
"<X c gray73",
"1X c gray76",
"2X c #C3C3C3",
"3X c gray79",
"4X c #CACACA",
"5X c #CECECE",
"6X c #D0D0D0",
"7X c #D2D2D2",
"8X c #D7D7D7",
"9X c #D8D8D8",
"0X c gainsboro",
"qX c #E1E1E1",
"wX c gray89",
"eX c #E4E4E4",
"rX c gray90",
"tX c #E6E6E6",
"yX c #E7E7E7",
"uX c #E9E9E8",
"iX c #E9E9E9",
"pX c #EAEAEA",
"aX c #EBEAEA",
"sX c #ECECEB",
"dX c #EEEEED",
"fX c #EEEEEE",
"gX c #EFEFEF",
"hX c gray94",
"jX c #F1F1F1",
"kX c gray95",
"lX c #F3F3F3",
"zX c #F4F4F4",
"xX c gray96",
"cX c gray97",
"vX c #F8F8F8",
"bX c #F9F9F9",
"nX c gray98",
"mX c #FBFBFB",
"MX c gray99",
"NX c #FDFDFD",
"BX c #FEFEFE",
"VX c white",
"CX c None",
/* pixels */
"CXCXCXCXCXCXCXCXCXCXCXCXCXCXCXCXCXCXCXCXCXCXCXCXCXCXCXCXCXCXCXCX",
"CXCXCXCXCXCXCXCXCXCXCXCXCXCXCXCXCXCXCXCXCXCXCXCXCXCXCXCXCXCXCXCX",
"CXCXCXCXCXCXCXCXCXCXCXCXCXCXCXCXf V.C CXCXCXCXCXCXCXCXCXCXCXCXCX",
"CXCXCX[ T.4 CXCXCXCXCXCXCXCXCX& b.7X&XE CXCXCXCXCXCXCXCXCXCXCXCX",
"CXCX  (.0X[.{ CXCXCXCXCXCXCXCX; T.iXVX|.3 CXCXCXCXCXCXCXCXCXCXCX",
"CXCX# +XVXyX6.CXCXCXCXCXCXCXCXCX3 OXVXqX[ CXCXCXCXCXCXCXCXCXCXCX",
"CXCX  `.VXkXN.CXCXCXCXCXCXCXCXCX  F.7X1X4.CXCXCXCXCXCXCXCXCXCXCX",
"CXCXCXB.gXVX+X3 CXCXCXCXCXA { q.b.L.^.~.P.V.9.V CXCXCXCXCXCXCXCX",
"CXCXCX9 .XNXjX!.4 y V._.$X2X8XrXlXcXvXnXbXzXeX<XJ.: CXCXCXCXCXCX",
"CXCXCXCXg [.iXkX*X;XfXVXVXVXVXVXVXVXVXVXVXVXVXVXpXU.o CXCXCXCXCX",
"CXCXCXCXCX: m.=XMXVXVXVXVXVXVXnX9X5XiXVXVXVXVXnX>X X] CXCXCXCXCX",
"CXCXCXCXCX: ).3XbXVXVXVXVXVXvX'.Z i 7.,XVXVXVXpX4.g C.; CXCXCXCX",
"CXCXCXCXCX& +XVXVXVXVXVXVXVX9XS       0.tXVXVXvXH.  5.V CXCXCXCX",
"CXCXCXCXCX  E.cXVXVXVXVXVXVXrX4.      & %XVXVXVX>Xf 9 Q   CXCXCX",
"CXCXCXCXCXCXW 6XVXVXVXVXVXVXVX$Xg     & #XVXVXVXmX:X}.T.  CXCXCX",
"CXCXCXCXCXCX+ ).NXVXVXVXVXVXVXNX1X/.I.oXgXVXVXVXVXVXVX].  CXCXCX",
"CXCXCXCXCXCXCXC ;XVXVXVXVXVXVXVXVXVXBXVXVXVXVXVXVXMX4Xw.CXCXCXCX",
"CXCXCXCXCXCXCXCX] -XcXVXVXNXnXxXhXdXsXiXuXaXwX1X@XW.} CXCXCXCXCX",
"CXCXCXCXCXCXCXCXCXC Y.XX{.Q.R.K.G.D.A.M.n.n.8.u . CXCXCXCXCXCXCX",
"CX@ 2 CXCXCXCXCXCX> h ` ,.p.e.$.| _ ^ R L T w 5 * CXCXCXCXCXCXCX",
"CXCX0 H )  .'  .#.a.k.1.U F Y ..:.,.Y 6 / +.t y.s   CXCXCXCXCXCX",
"CXCXCX2 s D H H B M J %.l.S.c.y.! J #.j.;.d i.f.p 7 CXCXCXCXCXCX",
"CXCXCXCX8 N J ~ %.s.l.h.&.I J ' 2.z.d.^ D g.h.j %.n CXCXCXCXCXCX",
"CXCXCXz >.=.o.R G z w q k J ' ~ ) ..*.s.h.#.q ) k.0 CXCXCXCXCXCX",
"CXCXO z a CXCXCX@ l O.y.r.3.t.-.t.u.@.( X.| v 1.b CXCXCXCXCXCXCX",
"CXCXCXCXCXCXCXCXc x.h.%.~ B q 1 * , K v.c.G N r   CXCXCXCXCXCXCX",
"CXCXCXCXCXCXCXX x m < CXCXCX  % z <.Z.t.e = - $ CXCXCXCXCXCXCXCX",
"CXCXCXCXCXCXCXCXo CXCXCX  o 7 P O.! p @   o + O CXCXCXCXCXCXCXCX",
"CXCXCXCXCXCXCXCXCXCXCXCXCXCXCXCXCXCXCXCX    CXCXCXCXCXCXCXCXCXCX",
"CXCXCXCXCXCXCXCXCXCXCXCXCXCXCXCXCXCXCXCXCXCXCXCXCXCXCXCXCXCXCXCX",
"CXCXCXCXCXCXCXCXCXCXCXCXCXCXCXCXCXCXCXCXCXCXCXCXCXCXCXCXCXCXCXCX",
"CXCXCXCXCXCXCXCXCXCXCXCXCXCXCXCXCXCXCXCXCXCXCXCXCXCXCXCXCXCXCXCX"
};
