/* XPM */
static char *result[] = {
/* columns rows colors chars-per-pixel */
"32 32 89 1 ",
"  c #010102",
". c #06060B",
"X c #0B0B0F",
"o c #0C0D14",
"O c #0F1015",
"+ c #0E111B",
"@ c #121317",
"# c #14151B",
"$ c #1A1B1F",
"% c #141620",
"& c #171824",
"* c #1A1A20",
"= c #151A2B",
"- c #1A1F2C",
"; c #1D212E",
": c #1D2331",
"> c #222127",
", c #232329",
"< c #212534",
"1 c #242837",
"2 c #2D2C33",
"3 c #222639",
"4 c #252A3A",
"5 c #292E3F",
"6 c #2F323D",
"7 c #323136",
"8 c #33333C",
"9 c #272D41",
"0 c #282E42",
"q c #2C3143",
"w c #333644",
"e c #3A3A41",
"r c #30374A",
"t c #343A4D",
"y c #363C51",
"u c #3C4257",
"i c #424147",
"p c #44444C",
"a c #49484F",
"s c #444550",
"d c #4E4D53",
"f c #41485D",
"g c #504E55",
"h c #4F505D",
"j c #55545C",
"k c #59575D",
"l c #444B60",
"z c #5C5A61",
"x c #615E65",
"c c #6A676E",
"v c #6B686E",
"b c #6D6B72",
"n c #717077",
"m c #76767C",
"M c #79787F",
"N c #787680",
"B c #7D7B81",
"V c #85838A",
"C c #89868D",
"Z c #88888E",
"A c #8D8C93",
"S c #929096",
"D c #959399",
"F c #9C999F",
"G c #A29EA3",
"H c #A4A1A6",
"J c #A6A3A9",
"K c #ABA8AE",
"L c #B3B0B4",
"P c #B6B2B9",
"I c #C1BFC4",
"U c #C4C1C6",
"Y c #C6C4C8",
"T c #C9C6CB",
"R c #CCC9CE",
"E c #CFCCD1",
"W c #D6D3D7",
"Q c #D7D4D8",
"! c #D8D7DA",
"~ c #DDDBDE",
"^ c #DFDEE1",
"/ c #E1DFE1",
"( c #E4E2E5",
") c #EDEBED",
"_ c #F5F4F5",
"` c #F8F7F7",
"' c #F9F7F8",
"] c #FFFEFF",
"[ c None",
/* pixels */
"[[[[[[[[[[[[[[[[[[[[[[[[[[[[[[  ",
"[[[[[[[[[[[[[[[[[[[[[[[[[[[[[[[[",
"[[[[[[[[[[[27[[[[[[[[[[[[[[[[[[[",
"[[[[pi[[[[[eGHgX[[[[[[[[[[[[[[[[",
"[[ g~ZO[[[[.N_)C$[[[[[[[[[[[[[[[",
"[[,Y]F#[[[[[>cW'H2[[[[[[[[[[[[[[",
"[[p)(e[[[[[[[[pW]H#[[[[[[[[[[[[[",
"[[p)/7[[[[[[[[ V])d[[[[[[[[[[[[[",
"[[,R'b [[[[[[[ V]'z[[[[[[[[[[[[[",
"[[ n'~d [[[[*7b(](e[[[[[[[[[[[[[",
"[[[*P]/DVAGPU~']'Apz#[[[[[[[[[[[",
"[[.k!]]]]]]]]]]]PzT_S@[[[[[[[[[[",
"[[7!]]]]]]]]]]]]))]]_x [[[[[[[[[",
"[ j_]]]]]]]]]]]]]]]]]R>[[[[[[[[[",
"[[p)]]]]]'(~']]]]]]]]_j [[[[[[[[",
"[[2KE]]](v,>Z_]]]]]]]]M [[[[[[[[",
"[[o&2E]]K.  oK]]]]]]]]B [[[[[[[[",
"[[ . S]]E2   C]]]]]]]I7[[[[[[[[[",
"[[[ OS]]]TmzV(]]]]_!C> [[[[[[[[[",
"[[[[;F(_`]`__)~YJBd2w% [[[[[[[[[",
"[[[[[@8gkzkjhw8:-:==4# [[[[[[[[[",
"[[[[[[[[[[ 4r+0uy949:+ [[[[[[[[[",
"[[[[[[[[[[.q:o33rly34r0#.[[[[[[[",
"[[[[[[[[[[ 5% O44:tlt:qt1o [[[[[",
"[[[[[[[[[[ ;+   ;q:<tutq53;;:;+ ",
"[[[[[[[[[[ +o    o;4315qttyq-o.[",
"[[[[[[[[[[[ .      .#;<143;o [[[",
"[[[[[[[[[[[[          [[[[[[[[[[",
"[[[[[[[[[[[[   [[[    [[[[[[[[[[",
"[[[[[[[[[[[[[[ [[[[[  [[[[[[[[[[",
"[[[[[[[[[[[[[[[[[[[[[[[[[[[[[[[[",
"[[[[[[[[[[[[[[[[[[[[[[[[[[[[[[[["
};
