/* XPM */
static char *result[] = {
/* columns rows colors chars-per-pixel */
"32 32 78 1 ",
"  c #000001",
". c #06060C",
"X c #07080F",
"o c #0A0A0E",
"O c #080712",
"+ c #070810",
"@ c #0A0A13",
"# c #0D0E1B",
"$ c #0F1016",
"% c #0E111D",
"& c #101117",
"* c #12131D",
"= c #0F0F20",
"- c #0F1120",
"; c #121322",
": c #161924",
"> c #1A1B23",
", c #14152A",
"< c #151A2B",
"1 c #1B1E2A",
"2 c #171931",
"3 c #191C33",
"4 c #1A1E38",
"5 c #1E202D",
"6 c #1E2233",
"7 c #1C223B",
"8 c #23242D",
"9 c #28272C",
"0 c #212536",
"q c #262833",
"w c #2B2C36",
"e c #21263B",
"r c #252A3B",
"t c #2A2D3B",
"y c #302F37",
"u c #2C303E",
"i c #32323C",
"p c #1C2641",
"a c #1F2944",
"s c #202740",
"d c #272E42",
"f c #2A2F41",
"g c #2E3343",
"h c #323442",
"j c #363946",
"k c #3C3B44",
"l c #34364A",
"z c #34394A",
"x c #3A3D4B",
"c c #353E52",
"v c #3D4153",
"b c #3A445B",
"n c #44444E",
"m c #434655",
"M c #474856",
"N c #484957",
"B c #45495A",
"V c #4B4C59",
"C c #53535F",
"Z c #434C62",
"A c #4E5263",
"S c #555665",
"D c #53576A",
"F c #54596C",
"G c #5D5D6C",
"H c #595E72",
"J c #5F6275",
"K c #63616C",
"L c #666573",
"P c #686675",
"I c #6A6877",
"U c #66697C",
"Y c #6D6D7E",
"T c #706F7D",
"R c #6E6F81",
"E c #727282",
"W c #7B7988",
"Q c None",
/* pixels */
"MB6%;773#.#,+      X-@.#370,5bRS",
"VSxg0r0<#..+.      .#..#57rrhjh8",
".9wjttre,@.          .@,7rrrmPnQ",
"QLG:==,,;.            +;<,##eUWQ",
"Qii8#=;;@              @;,;;eHT9",
"QxiiwX@O..            ..O@#@<fwQ",
"Q&8>q1e<%@..         ..$,63tMBqQ",
"Q>i1e:32%..         ..O#,3;#fWIQ",
"Qy9$<<3,#.            .o,33#3RWQ",
"Q>yoX-;=O..         .  .#;=@5FGQ",
"Q>8oX$-$....         .OO=<<,*<*Q",
"Q*qtut7<3:O.        ..#,4srtzFVQ",
"Qiiu*@:7eio          ..,44,@1HEw",
"Qiv>@%,<i@             O27,#;DEw",
"Q@i:%%$:*  .           .@,;#%ttQ",
"Q.>ut5qd,@#          .@<366rzvwQ",
"Q*CAfj,7<,#          .#7p7;@fJRt",
"QVvqo*,7%.             #47,O<ZYx",
"Qmb0..*>+              .=<;@<cB8",
"Q>Mqw@.&%-O.         .+#<77tmAqQ",
"QVK5#.. ...          .@%22;#fWPQ",
"QnGj>:==X              O,32=1RWQ",
"QNKg*;##+. .           .#;-@3FHQ",
"Q$*@X@.....         ...O=,1:*>:Q",
"QjS58*:$;-O         ..#,4pstlFMQ",
"QKCw*8<%,o .         ..,44,@<HEw",
"QyNg+*e*O.             @34,=,FEw",
"Q@5:.#%o.              .@;;#$ftQ",
"Q:8tf6;1<-.          .O<366ezvqQ",
"QuSv;#,ha,.          .%7p7;#dJYt",
"QSA6+#3z,.            .#47,@,ZYx",
"Qjc7O#:1.              .#,%@<bAq"
};
